<?xml version="1.0" standalone="no"?>
<!DOCTYPE svg PUBLIC "-//W3C//DTD SVG 20010904//EN"
 "http://www.w3.org/TR/2001/REC-SVG-20010904/DTD/svg10.dtd">
<svg version="1.0" xmlns="http://www.w3.org/2000/svg"
 width="700.000000pt" height="700.000000pt" viewBox="0 0 700.000000 700.000000"
 preserveAspectRatio="xMidYMid meet">
<metadata>
Created by potrace 1.14, written by Peter Selinger 2001-2017
</metadata>
<g transform="translate(0.000000,700.000000) scale(0.100000,-0.100000)"
fill="#000000" stroke="none">
<path d="M1169 6986 c-92 -33 -154 -95 -183 -184 -15 -43 -16 -376 -14 -3322
l3 -3275 23 -45 c29 -54 76 -101 134 -132 l43 -23 2310 -3 c2617 -3 2368 -11
2460 82 94 96 85 -171 85 2550 l0 2398 -982 984 -983 984 -1430 0 c-1143 -1
-1437 -3 -1466 -14z"/>
</g>
</svg>
