<svg width="37" height="37" viewBox="0 0 37 37" fill="none" xmlns="http://www.w3.org/2000/svg">
<g clip-path="url(#clip0)">
<path d="M31.8691 10.4225V35.511C31.8691 36.3337 31.2044 37 30.3836 37H6.61635C5.79563 37 5.13086 36.3337 5.13086 35.511V1.48896C5.13086 0.666289 5.79563 0 6.61635 0H21.471L31.8691 10.4225Z" fill="#438EFF"/>
<path d="M29.641 8.18915V35.511C29.641 36.3336 28.9762 37 28.1555 37H30.3837C31.2044 37 31.8692 36.3337 31.8692 35.511V10.4225L29.641 8.18915Z" fill="#3683DD"/>
<path d="M31.8692 10.4225H22.9564C22.136 10.4225 21.4709 9.75586 21.4709 8.93355V0L31.8692 10.4225Z" fill="#3683DD"/>
<path d="M11.2786 18.0533C11.8954 18.0533 12.3954 17.5534 12.3954 16.9366C12.3954 16.3199 11.8954 15.8199 11.2786 15.8199C10.6619 15.8199 10.1619 16.3199 10.1619 16.9366C10.1619 17.5534 10.6619 18.0533 11.2786 18.0533Z" fill="white"/>
<path d="M25.7214 18.0533H16.3411C15.7244 18.0533 15.2244 17.5534 15.2244 16.9366C15.2244 16.3199 15.7243 15.8199 16.3411 15.8199H25.7214C26.3381 15.8199 26.8381 16.3198 26.8381 16.9366C26.838 17.5533 26.3381 18.0533 25.7214 18.0533Z" fill="white"/>
<path d="M11.2786 22.5201C11.8954 22.5201 12.3954 22.0201 12.3954 21.4034C12.3954 20.7867 11.8954 20.2867 11.2786 20.2867C10.6619 20.2867 10.1619 20.7867 10.1619 21.4034C10.1619 22.0201 10.6619 22.5201 11.2786 22.5201Z" fill="white"/>
<path d="M25.7214 22.5201H16.3411C15.7244 22.5201 15.2244 22.0202 15.2244 21.4034C15.2244 20.7867 15.7243 20.2867 16.3411 20.2867H25.7214C26.3381 20.2867 26.8381 20.7866 26.8381 21.4034C26.838 22.0201 26.3381 22.5201 25.7214 22.5201Z" fill="white"/>
<path d="M11.2786 26.9869C11.8954 26.9869 12.3954 26.487 12.3954 25.8702C12.3954 25.2535 11.8954 24.7535 11.2786 24.7535C10.6619 24.7535 10.1619 25.2535 10.1619 25.8702C10.1619 26.487 10.6619 26.9869 11.2786 26.9869Z" fill="white"/>
<path d="M25.7214 26.9869H16.3411C15.7244 26.9869 15.2244 26.487 15.2244 25.8702C15.2244 25.2535 15.7243 24.7535 16.3411 24.7535H25.7214C26.3381 24.7535 26.8381 25.2534 26.8381 25.8702C26.838 26.4869 26.3381 26.9869 25.7214 26.9869Z" fill="white"/>
</g>
<defs>
<clipPath id="clip0">
<rect width="37" height="37" fill="white"/>
</clipPath>
</defs>
</svg>
